<svg width="206" height="206" viewBox="0 0 206 206" fill="none" xmlns="http://www.w3.org/2000/svg">
<path d="M46.4 172C44.9333 172 43.6667 171.467 42.6 170.4C41.5333 169.333 41 168.067 41 166.6V37.4C41 35.9333 41.5333 34.6667 42.6 33.6C43.6667 32.5333 44.9333 32 46.4 32H78C80.6667 32 82.6 32.6 83.8 33.8C85 35 85.8 35.9333 86.2 36.6L120 92V37.4C120 35.9333 120.533 34.6667 121.6 33.6C122.667 32.5333 123.933 32 125.4 32H161.6C163.067 32 164.333 32.5333 165.4 33.6C166.467 34.6667 167 35.9333 167 37.4V166.6C167 168.067 166.467 169.333 165.4 170.4C164.333 171.467 163.067 172 161.6 172H130C127.333 172 125.4 171.4 124.2 170.2C123 168.867 122.2 167.933 121.8 167.4L88 116.4V166.6C88 168.067 87.4667 169.333 86.4 170.4C85.3333 171.467 84.0667 172 82.6 172H46.4Z" fill="#5AFF92"/>
</svg>
