<svg width="28" height="28" viewBox="0 0 28 28" fill="none" xmlns="http://www.w3.org/2000/svg">
<path d="M4.64453 13.9976C4.64453 15.0252 4.8223 16.0111 5.14724 16.9271C7.49241 11.4993 9.47128 9.07079 11.4638 9.10965C12.3134 9.12642 13.4855 9.59873 14.2448 11.7512C14.4879 12.4411 14.6281 13.2734 14.7637 14.0786C14.8939 14.8533 15.0287 15.6547 15.2418 16.2322C15.4028 16.668 15.5619 16.8486 15.6573 16.873C16.5686 17.104 17.5999 14.9716 18.6952 12.2011C17.9258 11.5126 17.4411 10.512 17.4411 9.39811C17.4411 8.40699 17.8249 7.50618 18.4511 6.83448C17.0246 5.82774 15.2843 5.23599 13.4062 5.23599C8.56697 5.23599 4.64453 9.15862 4.64453 13.9976Z" fill="white"/>
<path d="M11.4217 11.2775C11.3303 11.2775 9.69578 11.3987 6.48438 19.3645C8.08715 21.4296 10.5927 22.759 13.4095 22.759C18.2482 22.759 22.1709 18.8361 22.1709 13.9976C22.1709 13.6767 22.1528 13.3598 22.1191 13.0478C21.8268 13.1205 21.5211 13.1601 21.2063 13.1601C21.0234 13.1601 20.8437 13.1463 20.6676 13.1212C20.1235 14.492 19.6035 15.6819 19.0665 16.6045C18.6445 17.3308 17.3594 19.5411 15.1282 18.9755C13.3146 18.5163 12.9503 16.3497 12.6283 14.4383C12.5027 13.6912 12.3839 12.9856 12.2029 12.4726C11.8864 11.5754 11.5412 11.28 11.4235 11.2775H11.4217Z" fill="white"/>
<path d="M19.0625 9.39814C19.0625 10.5818 20.0218 11.5413 21.2055 11.5413C22.3895 11.5413 23.3486 10.5818 23.3486 9.39814C23.3486 8.21436 22.3895 7.25505 21.2055 7.25505C20.0218 7.25505 19.0625 8.21436 19.0625 9.39814Z" fill="white"/>
</svg>
