<svg width="206" height="206" viewBox="0 0 206 206" fill="none" xmlns="http://www.w3.org/2000/svg">
<path d="M46.4 172C44.9333 172 43.6667 171.467 42.6 170.4C41.5333 169.333 41 168.067 41 166.6V37.4C41 35.9333 41.5333 34.6667 42.6 33.6C43.6667 32.5333 44.9333 32 46.4 32H105.6C124.8 32 139.8 36.3333 150.6 45C161.4 53.6667 166.8 65.5333 166.8 80.6C166.8 89.5333 164.733 97.3333 160.6 104C156.6 110.533 151.467 115.8 145.2 119.8L169.8 165.4C170.2 166.2 170.4 166.933 170.4 167.6C170.4 168.8 169.933 169.867 169 170.8C168.2 171.6 167.2 172 166 172H125C122.333 172 120.333 171.333 119 170C117.667 168.667 116.8 167.533 116.4 166.6L99.2 128.4H91V166.6C91 168.067 90.4667 169.333 89.4 170.4C88.3333 171.467 87.0667 172 85.6 172H46.4ZM91 90.4H105.6C108.667 90.4 110.933 89.4 112.4 87.4C114 85.2667 114.8 82.8667 114.8 80.2C114.8 77.5333 114.067 75.0667 112.6 72.8C111.267 70.4 108.933 69.2 105.6 69.2H91V90.4Z" fill="#FF7A5A"/>
</svg>
